<?xml version="1.0" encoding="utf-8"?>
<!-- Generator: Adobe Illustrator 26.0.1, SVG Export Plug-In . SVG Version: 6.00 Build 0)  -->
<!DOCTYPE svg PUBLIC "-//W3C//DTD SVG 1.1//EN" "http://www.w3.org/Graphics/SVG/1.1/DTD/svg11.dtd" [
	<!ENTITY ns_extend "http://ns.adobe.com/Extensibility/1.0/">
	<!ENTITY ns_ai "http://ns.adobe.com/AdobeIllustrator/10.0/">
	<!ENTITY ns_graphs "http://ns.adobe.com/Graphs/1.0/">
	<!ENTITY ns_vars "http://ns.adobe.com/Variables/1.0/">
	<!ENTITY ns_imrep "http://ns.adobe.com/ImageReplacement/1.0/">
	<!ENTITY ns_sfw "http://ns.adobe.com/SaveForWeb/1.0/">
	<!ENTITY ns_custom "http://ns.adobe.com/GenericCustomNamespace/1.0/">
	<!ENTITY ns_adobe_xpath "http://ns.adobe.com/XPath/1.0/">
]>
<svg version="1.1" id="Слой_1" xmlns:x="&ns_extend;" xmlns:i="&ns_ai;" xmlns:graph="&ns_graphs;"
	 xmlns="http://www.w3.org/2000/svg" xmlns:xlink="http://www.w3.org/1999/xlink" x="0px" y="0px" width="467.6px" height="53.1px"
	 viewBox="0 0 467.6 53.1" style="enable-background:new 0 0 467.6 53.1;" xml:space="preserve">
<style type="text/css">
	.st0{fill-rule:evenodd;clip-rule:evenodd;fill:#1C1717;}
	.st1{fill-rule:evenodd;clip-rule:evenodd;fill:#FA7500;}
	.st2{fill-rule:evenodd;clip-rule:evenodd;fill:#FA9500;}
	.st3{fill:#1C1717;}
</style>
<metadata>
	<sfw  xmlns="&ns_sfw;">
		<slices></slices>
		<sliceSourceBounds  bottomLeftOrigin="true" height="53.1" width="467.6" x="-545.3" y="-414.8"></sliceSourceBounds>
	</sfw>
</metadata>
<g>
	<path class="st0" d="M0,49h8.7V30.5h18h7.9h0.8V4.3h-0.8h-7.9h-18H5.6H0V49z M48.4,49h-4.2V4.3h8.7v35.9h17.2V4.3h8.7V49h-4.5h-4.3
		H52.9H48.4z M8.7,21.7v-8.6h18v8.6H8.7z"/>
	<rect x="105.1" y="26.7" class="st1" width="8.7" height="8.8"/>
	<path class="st1" d="M87.6,44.3v5.5v3.3h34.9v-8.8H96.4v-8.8v-8.8h14.3v8.8H96.4h-8.7V44.3z M87.6,9v8.8h26.2v8.8h8.7v-8.8v-4.4V9
		H87.6z"/>
	<path class="st0" d="M175.9,49h-8.7v-8.8V4.3h8.7v35.9H202V49H175.9z M236.9,31v-8.8h-17.4v-9.1h26.2V4.3h-26.2h-8.7v8.8v27.1V49
		h8.7h26.2v-8.8h-26.2V31H236.9z"/>
	<path class="st2" d="M123.6,0v8.8h26.1v8.8h8.7V8.8V3.9V0H123.6z M132.3,26.4v8.8h26.2V44h-34.9v-3.1v-5.7v-8.8H132.3v-8.8h13.1
		v8.8H132.3z"/>
	<rect x="141.1" y="17.6" class="st2" width="8.7" height="8.8"/>
	<path class="st0" d="M289,49h-8.7V13.1V4.3h8.7h26.2v8.8H289v9.1h17.4V31H289V49z M376,13.1h26.2V4.3H376h-8.7v8.8v27.1V49h8.7
		h26.2v-8.8H376V13.1z M437,31v-8.8h-17.4v-9.1h26.2V4.3h-26.2h-8.7v8.8v27.1V49h8.7h26.2v-8.8h-26.2V31H437z M328.1,4.3h-4.2V49
		h8.7V31h17.2V49h8.7V4.3h-4.5h-4.3h-17.2H328.1z M332.6,22.2v-9.1h17.2v9.1H332.6z"/>
	<path class="st3" d="M457.2,5.3h-2.8v7.8h-1.2V5.3h-2.8v-1h6.9V5.3z M467.6,4.3v8.8h-1V6.6c0-0.1,0-0.2,0-0.3c0-0.1,0-0.2,0-0.3
		l-3,5.5c-0.1,0.2-0.2,0.3-0.4,0.3H463c-0.2,0-0.3-0.1-0.4-0.3L459.5,6c0,0.2,0,0.4,0,0.6v6.5h-1V4.3h0.9c0.1,0,0.2,0,0.3,0
		c0.1,0,0.1,0.1,0.2,0.2l3,5.4c0.1,0.1,0.1,0.2,0.1,0.3c0.1,0.1,0.1,0.2,0.1,0.3c0-0.1,0.1-0.2,0.1-0.3c0.1-0.1,0.1-0.2,0.2-0.3
		l2.9-5.4c0.1-0.1,0.1-0.2,0.2-0.2c0.1,0,0.1,0,0.3,0H467.6z"/>
</g>
</svg>
