<?xml version="1.0" encoding="utf-8"?>
<!-- Generator: Adobe Illustrator 26.0.1, SVG Export Plug-In . SVG Version: 6.00 Build 0)  -->
<!DOCTYPE svg PUBLIC "-//W3C//DTD SVG 1.1//EN" "http://www.w3.org/Graphics/SVG/1.1/DTD/svg11.dtd" [
	<!ENTITY ns_extend "http://ns.adobe.com/Extensibility/1.0/">
	<!ENTITY ns_ai "http://ns.adobe.com/AdobeIllustrator/10.0/">
	<!ENTITY ns_graphs "http://ns.adobe.com/Graphs/1.0/">
	<!ENTITY ns_vars "http://ns.adobe.com/Variables/1.0/">
	<!ENTITY ns_imrep "http://ns.adobe.com/ImageReplacement/1.0/">
	<!ENTITY ns_sfw "http://ns.adobe.com/SaveForWeb/1.0/">
	<!ENTITY ns_custom "http://ns.adobe.com/GenericCustomNamespace/1.0/">
	<!ENTITY ns_adobe_xpath "http://ns.adobe.com/XPath/1.0/">
]>
<svg version="1.1" id="Слой_1" xmlns:x="&ns_extend;" xmlns:i="&ns_ai;" xmlns:graph="&ns_graphs;"
	 xmlns="http://www.w3.org/2000/svg" xmlns:xlink="http://www.w3.org/1999/xlink" x="0px" y="0px" width="214px" height="111.3px"
	 viewBox="0 0 214 111.3" style="enable-background:new 0 0 214 111.3;" xml:space="preserve">
<style type="text/css">
	.st0{fill-rule:evenodd;clip-rule:evenodd;fill:#2DA83E;}
	.st1{fill-rule:evenodd;clip-rule:evenodd;fill:#39B549;}
	.st2{fill:#FEFEFE;}
</style>
<metadata>
	<sfw  xmlns="&ns_sfw;">
		<slices></slices>
		<sliceSourceBounds  bottomLeftOrigin="true" height="111.3" width="214" x="-139" y="260"></sliceSourceBounds>
	</sfw>
</metadata>
<g>
	<path class="st0" d="M23,0h168c12.7,0,23,10.5,23,23.2v64.8c0,12.8-10.3,23.2-23,23.2H23c-12.7,0-23-10.5-23-23.2V23.2
		C0,10.5,10.3,0,23,0L23,0z"/>
	<path class="st1" d="M23,0h168c12.7,0,23,10.5,23,23.2v32.4H0V23.2C0,10.5,10.3,0,23,0L23,0z"/>
	<path class="st2" d="M92.8,47.6l12.4-12.5c1-1,2.7-1,3.7,0l12.4,12.5l-3.7,3.8L107,40.8L96.5,51.4L92.8,47.6z"/>
	<rect x="104.4" y="36.2" class="st2" width="5.2" height="30.1"/>
	<rect x="87.9" y="71.7" class="st2" width="38.3" height="5.3"/>
</g>
</svg>
